<?xml version="1.0" encoding="utf-8"?>
<!-- Generator: Adobe Illustrator 26.5.0, SVG Export Plug-In . SVG Version: 6.00 Build 0)  -->
<svg version="1.1" id="Layer_1" xmlns="http://www.w3.org/2000/svg" xmlns:xlink="http://www.w3.org/1999/xlink" x="0px" y="0px"
	 viewBox="-5.65 2.35 89.4 89.4" style="enable-background:new 0 0 89.4 89.4;" xml:space="preserve">
<style type="text/css">
	.st0{fill:url(#SVGID_1_);}
	.st1{fill:#FFFFFF;}
	.st2{fill:url(#SVGID_00000145016480824450180120000000554535601450215071_);}
	.st3{fill:#232323;}
	.st4{fill:url(#SVGID_00000073721209551645109720000000746214800335415693_);}
</style>
<g>
	<path class="st3" d="M60.5,82.1H17.6C10.1,82.1,4,76,4,68.5V25.6C4,18.1,10.1,12,17.6,12h42.9c7.5,0,13.7,6.1,13.7,13.7v42.9
		C74.1,76,68,82.1,60.5,82.1z"/>
	<linearGradient id="SVGID_1_" gradientUnits="userSpaceOnUse" x1="20.1588" y1="47.0629" x2="57.945" y2="47.0629">
		<stop  offset="0" style="stop-color:#ABB3FF"/>
		<stop  offset="0.9349" style="stop-color:#848AFF"/>
	</linearGradient>
	<path class="st0" d="M44.2,64c-3.2,6.2-12.6,4.3-13-2.7c0,0-0.3-7.9-0.6-10.5c-0.4-2.9-3.7-5.2-5.6-6C18.7,42,18.3,33.5,25,31.6
		l24.2-4.9c5.8-1.7,10.7,4.4,8,9.7L44.2,64z"/>
</g>
</svg>
